General
Complete name : CELLULAR.DVDRip(HINDI dubbed).aaaevilacharya
Format : Matroska
File size : 679 MiB
Duration : 1h 33mn
Overall bit rate : 1 010 Kbps
Encoded date : UTC 2010-09-25 22:06:35
Writing library : libebml v0.7.7 + libmatroska v0.8.1

Video
ID : 1
Format : MPEG-4 Visual
Format profile : Simple@L1
Format settings, BVOP : No
Format settings, QPel : No
Format settings, GMC : No warppoints
Format settings, Matrix : Default (H.263)
Codec ID : DX50
Codec ID/Hint : DivX 5
Duration : 1h 33mn
Bit rate : 877 Kbps
Width : 720 pixels
Height : 292 pixels
Display aspect ratio : 2.466
Frame rate : 23.976 fps
Color space : YUV
Chroma subsampling : 4:2:0
Bit depth : 8 bits
Scan type : Interlaced
Scan order : Top Field First
Bits/(Pixel*Frame) : 0.174
Stream size : 590 MiB (87%)
Title : CELLULAR.DVDRip(HINDI dubbed).aaaevilacharya
Writing library : Lavc52.30.1
Language : Hindi

Audio
ID : 2
Format : MPEG Audio
Format version : Version 1
Format profile : Layer 3
Mode : Joint stereo
Codec ID : A_MPEG/L3
Codec ID/Hint : MP3
Duration : 1h 33mn
Bit rate mode : Constant
Bit rate : 112 Kbps
Channel(s) : 2 channels
Sampling rate : 44.1 KHz
Stream size : 75.3 MiB (11%)
Title : evil hindi
Writing library : LAME3.98.2
Language : Hindi
